<?xml version="1.0" encoding="utf-8"?>
<!-- Generator: Adobe Illustrator 23.1.0, SVG Export Plug-In . SVG Version: 6.00 Build 0)  -->
<svg version="1.1" id="Слой_1" xmlns="http://www.w3.org/2000/svg" xmlns:xlink="http://www.w3.org/1999/xlink" x="0px" y="0px"
	 viewBox="0 0 16 16" style="enable-background:new 0 0 16 16;" xml:space="preserve">
<style type="text/css">
	.st0{fill:none;}
</style>
<rect class="st0" width="16" height="16"/>
<g>
	<path d="M10.6,8.1l5.4,3.4v-7L10.6,8.1z"/>
	<path d="M0,4.5v7l5.4-3.4L0,4.5z"/>
	<path d="M15,2.5H1c-0.5,0-0.9,0.4-1,0.9l8,5.3l8-5.3C15.9,2.9,15.5,2.5,15,2.5z"/>
	<path d="M9.7,8.7L8.3,9.6C8.2,9.7,8.1,9.7,8,9.7c-0.1,0-0.2,0-0.3-0.1L6.3,8.7l-6.3,4c0.1,0.5,0.5,0.8,1,0.8h14
		c0.5,0,0.9-0.4,1-0.8L9.7,8.7z"/>
</g>
</svg>
