<svg width="15" height="16" viewBox="0 0 15 16" fill="none" xmlns="http://www.w3.org/2000/svg">
<g clip-path="url(#clip0)">
<path d="M13.8549 11.5756C13.3996 11.1671 12.8796 10.8269 12.4243 10.4864C11.4488 9.73766 10.5385 9.73766 9.82326 10.8949C9.43297 11.5756 8.8477 11.5756 8.26272 11.3035C6.63689 10.4867 5.33635 9.32944 4.55608 7.5595C4.23079 6.81077 4.23079 6.06203 5.01136 5.51741C5.40165 5.24526 5.85663 4.90476 5.79163 4.22406C5.72663 3.40729 3.84081 0.616469 3.06055 0.344C2.73526 0.207924 2.41027 0.207924 2.08499 0.344C0.32916 0.956658 -0.451105 2.52216 0.264164 4.2921C2.34497 9.73766 6.11661 13.4816 11.1888 15.7959C11.5138 15.932 11.8391 15.932 11.9691 16C13.1396 16 14.5052 14.8427 14.8954 13.6858C15.2857 12.5965 14.5052 12.1203 13.8549 11.5756Z" fill="black"/>
<path d="M8.13213 0.820597C8.72652 0.918839 9.26533 1.05237 9.76222 1.21738C9.84635 1.24536 9.93443 1.27047 10.0158 1.30036C10.045 1.31117 10.0714 1.3242 10.1003 1.33533C10.6266 1.53627 11.0983 1.77917 11.5132 2.07357C12.9723 3.10845 13.7647 4.75185 14.0493 7.21933C14.0493 7.62755 13.9193 8.17217 14.4396 8.17217C14.4396 8.17217 14.4396 8.17217 14.4399 8.17217C14.9601 8.17217 14.8302 7.62755 14.8302 7.28736C14.8666 5.18137 13.895 3.18316 12.4013 1.8135C11.5071 0.993871 10.4259 0.400607 9.26198 0.143081C9.12956 0.113831 8.99623 0.0874424 8.86198 0.0667767C8.64269 0.0333937 8.42097 0.0120921 8.19743 0.00382587C8.16524 0.0124101 8.12788 0.0155894 8.08718 0.0155894C7.98817 0.0159073 7.87245 -0.001579 7.7622 0.000328601C7.54807 1.06677e-05 7.35339 0.0585104 7.35217 0.409191C7.35217 0.410145 7.35187 0.411099 7.35156 0.41237C7.35187 0.820597 7.80715 0.752559 8.13213 0.820597Z" fill="black"/>
<path d="M8.78301 1.97756C8.45802 1.90952 7.93774 1.70509 7.87275 2.24971C7.80775 2.79433 8.32772 2.72629 8.65301 2.79433C10.9938 3.33895 11.7741 4.22376 12.1644 6.60635C12.2294 6.94654 12.0994 7.49116 12.6846 7.42312C13.1396 7.35508 12.9446 6.8785 13.0096 6.60635C13.0096 4.29211 11.1238 2.25003 8.78301 1.97756Z" fill="black"/>
<path d="M8.97764 3.88324C8.71735 3.88324 8.45736 3.88324 8.39237 4.15539C8.26237 4.56393 8.58766 4.63197 8.84765 4.70001C9.82291 4.8364 10.3432 5.38071 10.4082 6.40191C10.4732 6.67438 10.6035 6.87849 10.8635 6.87849C11.2538 6.81045 11.2538 6.46995 11.2538 6.19779C11.2538 5.04083 10.0832 3.81552 8.97764 3.88324Z" fill="black"/>
</g>
<defs>
<clipPath id="clip0">
<rect width="15" height="16" fill="white"/>
</clipPath>
</defs>
</svg>
