<svg width="56" height="55" viewBox="0 0 56 55" fill="none" xmlns="http://www.w3.org/2000/svg">
<path d="M13.1661 8.86352C10.4383 18.9541 3.3369 24.4702 2.02211 29.3334C0.707323 34.1966 0.742081 45.1637 23.1116 51.2118C45.4811 57.2598 52.4782 44.4096 53.923 39.0598C60.6949 14.0154 17.9975 -9.00852 13.1661 8.86352Z" fill="#F29C1F" fill-opacity="0.25"/>
<path d="M47.1839 18.968C45.9341 18.968 44.917 17.9509 44.917 16.7011C44.917 15.4513 45.9341 14.4342 47.1839 14.4342C48.4337 14.4342 49.4507 15.4513 49.4507 16.7011C49.4507 17.9509 48.4337 18.968 47.1839 18.968ZM47.1839 15.9455C46.7668 15.9455 46.4282 16.2855 46.4282 16.7011C46.4282 17.1167 46.7668 17.4567 47.1839 17.4567C47.601 17.4567 47.9395 17.1167 47.9395 16.7011C47.9395 16.2855 47.601 15.9455 47.1839 15.9455Z" fill="#D2D6DC"/>
<path d="M4.82129 8.02722L5.8899 6.95861L8.02713 9.09584L6.95852 10.1645L4.82129 8.02722Z" fill="#D2D6DC"/>
<path d="M4.55371 15.2411L6.69094 13.1039L7.75956 14.1725L5.62233 16.3097L4.55371 15.2411Z" fill="#D2D6DC"/>
<path d="M10.6973 9.09656L12.8345 6.95933L13.9031 8.02794L11.7659 10.1652L10.6973 9.09656Z" fill="#D2D6DC"/>
<path d="M32.2617 23.5016V40.1253H34.9064H40.9514H43.5961C44.4303 40.1253 45.1073 39.4483 45.1073 38.6141V23.5016H32.2617Z" fill="#F7F7F8"/>
<path d="M26.2166 15.1899H9.9707V40.1256H27.7279V16.7012C27.7279 15.867 27.0508 15.1899 26.2166 15.1899Z" fill="#FFEA32"/>
<path d="M37.9289 43.1478C39.3895 43.1478 40.5736 41.9637 40.5736 40.5031C40.5736 39.0425 39.3895 37.8584 37.9289 37.8584C36.4682 37.8584 35.2842 39.0425 35.2842 40.5031C35.2842 41.9637 36.4682 43.1478 37.9289 43.1478Z" fill="#F7F7F8"/>
<path d="M22.8166 43.1478C24.2772 43.1478 25.4612 41.9637 25.4612 40.5031C25.4612 39.0425 24.2772 37.8584 22.8166 37.8584C21.3559 37.8584 20.1719 39.0425 20.1719 40.5031C20.1719 41.9637 21.3559 43.1478 22.8166 43.1478Z" fill="#F7F7F8"/>
<path d="M13.7492 43.1478C15.2098 43.1478 16.3939 41.9637 16.3939 40.5031C16.3939 39.0425 15.2098 37.8584 13.7492 37.8584C12.2886 37.8584 11.1045 39.0425 11.1045 40.5031C11.1045 41.9637 12.2886 43.1478 13.7492 43.1478Z" fill="#F7F7F8"/>
<path d="M37.5508 28.0354H45.107V33.3248H37.5508V28.0354Z" fill="#FFEA32"/>
<path d="M33.773 15.1896H32.2617V23.5015H42.0848C42.0848 18.9103 38.3641 15.1896 33.773 15.1896Z" fill="#FFEA32"/>
<path d="M32.2617 23.5016V40.1253H34.9064H35.662V23.5016H32.2617Z" fill="#D2D6DC"/>
<path d="M9.9707 15.1899H13.371V40.1256H9.9707V15.1899Z" fill="#F29C1F"/>
<path d="M38.6845 40.5031C38.6845 39.6931 39.0563 38.9782 39.629 38.4931C39.1681 38.1032 38.5802 37.8584 37.9289 37.8584C36.4675 37.8584 35.2842 39.0432 35.2842 40.5031C35.2842 41.963 36.4675 43.1478 37.9289 43.1478C38.5802 43.1478 39.1681 42.9029 39.629 42.513C39.0563 42.0279 38.6845 41.3131 38.6845 40.5031Z" fill="#D2D6DC"/>
<path d="M23.5722 40.5031C23.5722 39.6931 23.944 38.9782 24.5167 38.4931C24.0558 38.1032 23.4679 37.8584 22.8166 37.8584C21.3567 37.8584 20.1719 39.0432 20.1719 40.5031C20.1719 41.963 21.3567 43.1478 22.8166 43.1478C23.4679 43.1478 24.0558 42.9029 24.5167 42.513C23.944 42.0279 23.5722 41.3131 23.5722 40.5031Z" fill="#D2D6DC"/>
<path d="M14.5048 40.5031C14.5048 39.6931 14.8766 38.9782 15.4493 38.4931C14.9884 38.1032 14.4005 37.8584 13.7492 37.8584C12.2893 37.8584 11.1045 39.0432 11.1045 40.5031C11.1045 41.963 12.2893 43.1478 13.7492 43.1478C14.4005 43.1478 14.9884 42.9029 15.4493 42.513C14.8766 42.0279 14.5048 41.3131 14.5048 40.5031Z" fill="#D2D6DC"/>
<path d="M37.5508 28.0354H40.9511V33.3248H37.5508V28.0354Z" fill="#F29C1F"/>
<path d="M33.773 15.1896H32.2617V23.5015H35.662V15.4132C35.0545 15.2727 34.4243 15.1896 33.773 15.1896Z" fill="#F29C1F"/>
<path d="M20.5498 19.7234H22.8167V32.569H20.5498V19.7234Z" fill="#161E2E"/>
<path d="M12.9932 19.7234H15.26V32.569H12.9932V19.7234Z" fill="#161E2E"/>
<path d="M37.9285 44.2813C35.846 44.2813 34.1504 42.5872 34.1504 40.5032C34.1504 38.4192 35.846 36.7251 37.9285 36.7251C40.011 36.7251 41.7066 38.4192 41.7066 40.5032C41.7066 42.5872 40.011 44.2813 37.9285 44.2813ZM37.9285 38.992C37.0958 38.992 36.4173 39.669 36.4173 40.5032C36.4173 41.3374 37.0958 42.0145 37.9285 42.0145C38.7612 42.0145 39.4398 41.3374 39.4398 40.5032C39.4398 39.669 38.7612 38.992 37.9285 38.992Z" fill="#161E2E"/>
<path d="M22.8162 44.2813C20.7337 44.2813 19.0381 42.5872 19.0381 40.5032C19.0381 38.4192 20.7337 36.7251 22.8162 36.7251C24.8987 36.7251 26.5943 38.4192 26.5943 40.5032C26.5943 42.5872 24.8987 44.2813 22.8162 44.2813ZM22.8162 38.992C21.9835 38.992 21.305 39.669 21.305 40.5032C21.305 41.3374 21.9835 42.0145 22.8162 42.0145C23.6489 42.0145 24.3275 41.3374 24.3275 40.5032C24.3275 39.669 23.6489 38.992 22.8162 38.992Z" fill="#161E2E"/>
<path d="M13.7488 44.2813C11.6663 44.2813 9.9707 42.5872 9.9707 40.5032C9.9707 38.4192 11.6663 36.7251 13.7488 36.7251C15.8313 36.7251 17.527 38.4192 17.527 40.5032C17.527 42.5872 15.8313 44.2813 13.7488 44.2813ZM13.7488 38.992C12.9161 38.992 12.2376 39.669 12.2376 40.5032C12.2376 41.3374 12.9161 42.0145 13.7488 42.0145C14.5815 42.0145 15.2601 41.3374 15.2601 40.5032C15.2601 39.669 14.5815 38.992 13.7488 38.992Z" fill="#161E2E"/>
<path d="M45.1077 34.4583H37.5514C36.9257 34.4583 36.418 33.9506 36.418 33.3249V28.0355C36.418 27.4099 36.9257 26.9021 37.5514 26.9021H45.1077V29.169H38.6848V32.1915H45.1077V34.4583Z" fill="#161E2E"/>
<path d="M16.7715 38.9918H19.794V41.2587H16.7715V38.9918Z" fill="#161E2E"/>
<path d="M27.7279 41.2593H24.7054V38.9924H26.5945V16.7015C26.5945 16.4929 26.4252 16.3236 26.2166 16.3236H9.9707V14.0568H26.2166C27.675 14.0568 28.8613 15.2431 28.8613 16.7015V40.1258C28.8613 40.7515 28.3535 41.2593 27.7279 41.2593Z" fill="#161E2E"/>
<path d="M43.5957 41.2588H40.9511V38.9919H43.5957C43.8043 38.9919 43.9736 38.8227 43.9736 38.6141V24.635H33.3948V38.9919H34.9061V41.2588H32.2614C31.6357 41.2588 31.1279 40.751 31.1279 40.1254V23.5016C31.1279 22.8759 31.6357 22.3682 32.2614 22.3682H45.107C45.7326 22.3682 46.2404 22.8759 46.2404 23.5016V38.6141C46.2404 40.0725 45.0541 41.2588 43.5957 41.2588Z" fill="#161E2E"/>
<path d="M43.2179 23.5016H40.9511C40.9511 19.5436 37.7306 16.3231 33.7726 16.3231H33.3948V23.5016H31.1279V15.1897C31.1279 14.5641 31.6357 14.0563 32.2614 14.0563H33.7726C38.9804 14.0563 43.2179 18.2938 43.2179 23.5016Z" fill="#161E2E"/>
<path d="M27.3506 38.9918H31.8843V41.2587H27.3506V38.9918Z" fill="#161E2E"/>
</svg>
