<svg width="56" height="56" viewBox="0 0 56 56" fill="none" xmlns="http://www.w3.org/2000/svg">
<g clip-path="url(#clip0_102_373)">
<path d="M53.441 31.5189C47.7255 22.7673 48.333 13.7965 45.578 9.57858C42.823 5.36069 34.6124 -1.91145 15.2125 10.7604C-4.18746 23.4322 0.746772 37.2073 3.77834 41.8453C17.966 63.565 63.5649 47.0183 53.441 31.5189Z" fill="#FFEA32" fill-opacity="0.25"/>
<path d="M9.30469 5.65125L11.4419 3.51401L12.5105 4.58263L10.3733 6.71986L9.30469 5.65125Z" fill="#D2D6DC"/>
<path d="M3.16016 11.7949L5.29739 9.65769L6.366 10.7263L4.22877 12.8635L3.16016 11.7949Z" fill="#D2D6DC"/>
<path d="M3.16113 4.31445L4.22975 3.24584L6.36698 5.38307L5.29836 6.45168L3.16113 4.31445Z" fill="#D2D6DC"/>
<path d="M41.8743 26.6315C40.6245 26.6315 39.6074 25.6145 39.6074 24.3647C39.6074 23.1148 40.6245 22.0978 41.8743 22.0978C43.1241 22.0978 44.1412 23.1148 44.1412 24.3647C44.1412 25.6145 43.1241 26.6315 41.8743 26.6315ZM41.8743 23.609C41.4587 23.609 41.1187 23.9475 41.1187 24.3647C41.1187 24.7818 41.4587 25.1203 41.8743 25.1203C42.2899 25.1203 42.6299 24.7818 42.6299 24.3647C42.6299 23.9475 42.2899 23.609 41.8743 23.609Z" fill="#D2D6DC"/>
<path d="M30.2071 26.0709H13.1602V31.3603V41.939H18.4495H23.7087H35.0733V31.4359V26.0709H30.2071Z" fill="#939495"/>
<path d="M38.8514 31.4358H35.0732V41.939H36.5845H41.8421H44.8964V37.4808C44.8964 34.1424 42.1897 31.4358 38.8514 31.4358Z" fill="#FFEA32"/>
<path d="M21.0949 44.9615C22.5555 44.9615 23.7396 43.7774 23.7396 42.3168C23.7396 40.8562 22.5555 39.6721 21.0949 39.6721C19.6343 39.6721 18.4502 40.8562 18.4502 42.3168C18.4502 43.7774 19.6343 44.9615 21.0949 44.9615Z" fill="#939495"/>
<path d="M39.2296 44.9615C40.6903 44.9615 41.8743 43.7774 41.8743 42.3168C41.8743 40.8562 40.6903 39.6721 39.2296 39.6721C37.769 39.6721 36.585 40.8562 36.585 42.3168C36.585 43.7774 37.769 44.9615 39.2296 44.9615Z" fill="#939495"/>
<path d="M25.2504 26.8265H12.4048C11.5706 26.8265 10.8936 26.1495 10.8936 25.3153V12.4696C10.8936 11.6354 11.5706 10.9584 12.4048 10.9584H25.2504C26.0846 10.9584 26.7617 11.6354 26.7617 12.4696V25.3153C26.7617 26.1495 26.0846 26.8265 25.2504 26.8265Z" fill="#FFEA32"/>
<path d="M16.9385 10.9584H20.7166V16.2477H16.9385V10.9584Z" fill="#FFEA32"/>
<path d="M16.5605 26.0709H13.1602V31.3603V41.939H16.5605V31.3603V26.0709Z" fill="#D2D6DC"/>
<path d="M35.0732 31.4358V41.939H36.5845H38.4736V31.4358H35.0732Z" fill="#F29C1F"/>
<path d="M21.8505 42.3168C21.8505 41.5068 22.2223 40.792 22.795 40.3068C22.3341 39.9169 21.7462 39.6721 21.0949 39.6721C19.635 39.6721 18.4502 40.8569 18.4502 42.3168C18.4502 43.7767 19.635 44.9615 21.0949 44.9615C21.7462 44.9615 22.3341 44.7167 22.795 44.3268C22.2223 43.8417 21.8505 43.1268 21.8505 42.3168Z" fill="#D2D6DC"/>
<path d="M39.9853 42.3168C39.9853 41.5068 40.357 40.792 40.9298 40.3068C40.4689 39.9169 39.881 39.6721 39.2296 39.6721C37.7698 39.6721 36.585 40.8569 36.585 42.3168C36.585 43.7767 37.7698 44.9615 39.2296 44.9615C39.881 44.9615 40.4689 44.7167 40.9298 44.3268C40.357 43.8417 39.9853 43.1268 39.9853 42.3168Z" fill="#D2D6DC"/>
<path d="M14.2939 25.3153V12.4696C14.2939 11.6354 14.9709 10.9584 15.8051 10.9584H12.4048C11.5706 10.9584 10.8936 11.6354 10.8936 12.4696V25.3153C10.8936 26.1495 11.5706 26.8265 12.4048 26.8265H15.8051C14.9709 26.8265 14.2939 26.1495 14.2939 25.3153Z" fill="#F29C1F"/>
<path d="M25.2501 27.9599H12.4045C10.9461 27.9599 9.75977 26.7736 9.75977 25.3153V12.4696C9.75977 11.0113 10.9461 9.82495 12.4045 9.82495H25.2501C26.7084 9.82495 27.8948 11.0113 27.8948 12.4696V25.3153C27.8948 26.7736 26.7084 27.9599 25.2501 27.9599ZM12.4045 12.0918C12.1959 12.0918 12.0266 12.2611 12.0266 12.4696V25.3153C12.0266 25.5238 12.1959 25.6931 12.4045 25.6931H25.2501C25.4586 25.6931 25.6279 25.5238 25.6279 25.3153V12.4696C25.6279 12.2611 25.4586 12.0918 25.2501 12.0918H12.4045Z" fill="#161E2E"/>
<path d="M20.7162 17.3811H16.9381C16.3125 17.3811 15.8047 16.8733 15.8047 16.2476V10.9583C15.8047 10.3326 16.3125 9.82483 16.9381 9.82483H20.7162C21.3419 9.82483 21.8497 10.3326 21.8497 10.9583V16.2476C21.8497 16.8733 21.3419 17.3811 20.7162 17.3811ZM18.0716 15.1142H19.5828V12.0917H18.0716V15.1142Z" fill="#161E2E"/>
<path d="M20.7168 21.915H23.7393V24.1819H20.7168V21.915Z" fill="#161E2E"/>
<path d="M19.5836 43.0723H13.1608C12.5351 43.0723 12.0273 42.5645 12.0273 41.9389V30.2267H14.2942V40.8054H19.5836V43.0723Z" fill="#161E2E"/>
<path d="M35.0732 43.0726H22.5752V40.8057H33.9398V27.2045H30.1163V24.9376H35.0732C35.6989 24.9376 36.2067 25.4454 36.2067 26.0711V41.9392C36.2067 42.5648 35.6989 43.0726 35.0732 43.0726Z" fill="#161E2E"/>
<path d="M44.896 43.0726H40.7083V40.8057H43.7626V37.4809C43.7626 34.7728 41.5592 32.5694 38.851 32.5694H36.2063V40.8057H37.7176V43.0726H35.0729C34.4472 43.0726 33.9395 42.5648 33.9395 41.9391V31.4359C33.9395 30.8103 34.4472 30.3025 35.0729 30.3025H38.851C42.809 30.3025 46.0295 33.523 46.0295 37.4809V41.9391C46.0295 42.5648 45.5217 43.0726 44.896 43.0726Z" fill="#161E2E"/>
<path d="M21.0945 46.0951C19.0105 46.0951 17.3164 44.3994 17.3164 42.3169C17.3164 40.2344 19.0105 38.5388 21.0945 38.5388C23.1785 38.5388 24.8727 40.2344 24.8727 42.3169C24.8727 44.3994 23.1785 46.0951 21.0945 46.0951ZM21.0945 40.8057C20.2603 40.8057 19.5833 41.4842 19.5833 42.3169C19.5833 43.1496 20.2603 43.8282 21.0945 43.8282C21.9287 43.8282 22.6058 43.1496 22.6058 42.3169C22.6058 41.4842 21.9287 40.8057 21.0945 40.8057Z" fill="#161E2E"/>
<path d="M39.2293 46.0951C37.1453 46.0951 35.4512 44.3994 35.4512 42.3169C35.4512 40.2344 37.1453 38.5388 39.2293 38.5388C41.3133 38.5388 43.0074 40.2344 43.0074 42.3169C43.0074 44.3994 41.3133 46.0951 39.2293 46.0951ZM39.2293 40.8057C38.3951 40.8057 37.718 41.4842 37.718 42.3169C37.718 43.1496 38.3951 43.8282 39.2293 43.8282C40.0635 43.8282 40.7405 43.1496 40.7405 42.3169C40.7405 41.4842 40.0635 40.8057 39.2293 40.8057Z" fill="#161E2E"/>
</g>
<defs>
<clipPath id="clip0_102_373">
<rect width="54.405" height="54.405" fill="white" transform="translate(0.692383 0.757446)"/>
</clipPath>
</defs>
</svg>
