<svg width="1232" height="257" viewBox="0 0 1232 257" fill="none" xmlns="http://www.w3.org/2000/svg">
<path d="M735.591 128.5C735.591 66.5629 681.896 16.3529 615.659 16.3529C549.423 16.3529 495.728 66.5629 495.728 128.5" stroke="#FFEA32" stroke-opacity="0.52" stroke-width="31"/>
<path d="M255.864 128.5C255.864 190.437 309.559 240.647 375.796 240.647C442.032 240.647 495.728 190.437 495.728 128.5" stroke="#DA8610" stroke-opacity="0.52" stroke-width="31"/>
<path d="M735.671 128.098C735.671 190.035 789.367 240.245 855.603 240.245C921.84 240.245 975.535 190.035 975.535 128.098" stroke="#DA8610" stroke-opacity="0.52" stroke-width="31"/>
<path d="M255.864 128.5C255.864 66.5629 202.168 16.3529 135.932 16.3529C69.6953 16.3529 16 66.5629 16 128.5" stroke="#FFEA32" stroke-opacity="0.52" stroke-width="31"/>
<path d="M1216 128.5C1216 66.5629 1162.3 16.3529 1096.07 16.3529C1029.83 16.3529 976.136 66.5629 976.136 128.5" stroke="#FFEA32" stroke-opacity="0.52" stroke-width="31"/>
</svg>
