<svg width="30" height="30" viewBox="0 0 30 30" fill="none" xmlns="http://www.w3.org/2000/svg">
<rect x="2" y="2" width="26.25" height="26.25" rx="3" fill="#746E36" fill-opacity="0.89"/>
<path d="M13.3994 11.2846L12.9608 11.6517C12.9608 11.6517 11.918 12.5243 14.3074 15.3641C16.6968 18.2038 17.7395 17.3313 17.7395 17.3313L18.0157 17.1001C18.6962 16.5306 19.7063 16.5597 20.3923 17.1685L21.7955 18.4139C22.6445 19.1674 22.6505 20.4804 21.8082 21.1853L20.2964 22.4504C19.8787 22.7999 19.3583 23.013 18.8087 22.9336C17.4024 22.7303 14.4173 21.8302 11.1792 17.9817C7.74548 13.9006 7.90398 10.3671 8.16527 8.93923C8.24787 8.48762 8.51638 8.11209 8.86432 7.82097L10.2325 6.67597C11.1561 5.9031 12.5915 6.26941 13.0908 7.40535L13.8685 9.17424C14.1963 9.92011 14.0059 10.7772 13.3994 11.2846Z" fill="#2C261B"/>
</svg>
