<svg width="28" height="28" viewBox="0 0 28 28" fill="none" xmlns="http://www.w3.org/2000/svg">
<path d="M23.8344 27.125H4.15626C3.72199 27.1394 3.28947 27.0635 2.88605 26.9021C2.48262 26.7407 2.11707 26.4974 1.81251 26.1875C1.50497 25.8851 1.26301 25.5226 1.10172 25.1226C0.940426 24.7226 0.863252 24.2936 0.875007 23.8625V4.15625C0.860645 3.72199 0.936549 3.28946 1.09792 2.88604C1.25929 2.48261 1.50261 2.11706 1.81251 1.8125C2.11707 1.50261 2.48262 1.25928 2.88605 1.09791C3.28947 0.936541 3.72199 0.860637 4.15626 0.875H23.8438C24.278 0.860637 24.7105 0.936541 25.114 1.09791C25.5174 1.25928 25.8829 1.50261 26.1875 1.8125C26.4974 2.11706 26.7407 2.48261 26.9021 2.88604C27.0635 3.28946 27.1394 3.72199 27.125 4.15625V23.8438C27.1201 24.7141 26.7715 25.5472 26.1552 26.1618C25.5389 26.7763 24.7047 27.1225 23.8344 27.125ZM15.3219 22.6156V14.75H17.975L18.3688 11.6938H15.3219V9.97812C15.2949 9.6631 15.3235 9.34577 15.4063 9.04062C15.4326 8.93096 15.477 8.82643 15.5375 8.73125C15.7344 8.375 16.25 8.19688 17.0656 8.19688H18.4719V5.50625C17.6938 5.41804 16.9112 5.37422 16.1281 5.375C15.4573 5.31917 14.7842 5.45306 14.1858 5.76139C13.5874 6.06972 13.0877 6.54006 12.7438 7.11875C12.3408 7.79897 12.1363 8.57834 12.1531 9.36875V11.6938H9.52813V14.75H12.125V22.6156H15.3219Z" fill="#746E36" fill-opacity="0.89"/>
</svg>
