<svg width="28" height="28" viewBox="0 0 28 28" fill="none" xmlns="http://www.w3.org/2000/svg">
<path d="M23.8344 27.125H4.14688C3.71424 27.1375 3.28368 27.0607 2.88204 26.8994C2.48041 26.7381 2.11632 26.4958 1.8125 26.1875C1.50632 25.8841 1.26525 25.5214 1.10405 25.1217C0.942855 24.7219 0.864915 24.2934 0.875001 23.8625V4.15625C0.861774 3.72212 0.9382 3.28993 1.0995 2.88667C1.26081 2.48341 1.50353 2.11774 1.8125 1.8125C2.11849 1.50188 2.48563 1.25818 2.89068 1.0968C3.29573 0.935426 3.72987 0.859898 4.16563 0.874998H23.8531C24.2858 0.861942 24.7166 0.938482 25.1183 1.09981C25.52 1.26115 25.884 1.50378 26.1875 1.8125C26.4974 2.11706 26.7407 2.48261 26.9021 2.88604C27.0635 3.28946 27.1394 3.72198 27.125 4.15625V23.8437C27.1201 24.7141 26.7715 25.5472 26.1552 26.1618C25.5389 26.7763 24.7047 27.1225 23.8344 27.125ZM14 22.5406H16.9156C17.0495 22.5267 17.1815 22.4984 17.3094 22.4562C17.4755 22.4067 17.6312 22.3273 17.7688 22.2219C17.9395 22.1036 18.0755 21.9417 18.1625 21.7531C18.2813 21.515 18.3362 21.2501 18.3219 20.9844V6.79062C18.3341 6.52506 18.2793 6.26069 18.1625 6.02187C18.0638 5.83791 17.9223 5.68037 17.75 5.5625C17.6102 5.46064 17.4552 5.38154 17.2906 5.32812C17.1654 5.27693 17.0321 5.24836 16.8969 5.24375H11.0469C10.9119 5.25019 10.7789 5.27869 10.6531 5.32812C10.4848 5.37936 10.3263 5.45859 10.1844 5.5625C10.023 5.68828 9.89175 5.84841 9.8 6.03125C9.68751 6.27152 9.63293 6.53481 9.64063 6.8V20.975C9.63075 21.2404 9.68544 21.5042 9.8 21.7437C9.8866 21.9299 10.0188 22.0911 10.1844 22.2125C10.3242 22.3199 10.4833 22.3995 10.6531 22.4469C10.7814 22.4873 10.9133 22.5155 11.0469 22.5312L14 22.5406ZM17.5344 19.7281H10.4188V7.19375H17.4875L17.5344 19.7281ZM14 6.40625C13.621 6.43469 13.2399 6.41579 12.8656 6.35C12.8548 6.30374 12.8548 6.25563 12.8656 6.20937C12.8528 6.16337 12.8528 6.11475 12.8656 6.06875C13.2425 6.02536 13.6231 6.02536 14 6.06875C14.3863 6.02647 14.7762 6.02647 15.1625 6.06875C15.1753 6.11475 15.1753 6.16337 15.1625 6.20937C15.1733 6.25563 15.1733 6.30374 15.1625 6.35C14.7786 6.41466 14.3884 6.43354 14 6.40625ZM14 21.8844C13.7928 21.8819 13.5949 21.7978 13.4492 21.6504C13.3035 21.503 13.2219 21.3041 13.2219 21.0969C13.2223 20.9937 13.2433 20.8917 13.2835 20.7968C13.3238 20.7018 13.3825 20.6158 13.4563 20.5437C13.528 20.4695 13.6139 20.4104 13.7089 20.37C13.8039 20.3297 13.9061 20.3089 14.0094 20.3089C14.1126 20.3089 14.2148 20.3297 14.3098 20.37C14.4049 20.4104 14.4908 20.4695 14.5625 20.5437C14.635 20.6163 14.6923 20.7026 14.7309 20.7976C14.7695 20.8926 14.7888 20.9943 14.7875 21.0969C14.7901 21.201 14.7715 21.3045 14.7328 21.4013C14.6941 21.498 14.6362 21.5858 14.5626 21.6594C14.4889 21.7331 14.4011 21.791 14.3044 21.8297C14.2077 21.8683 14.1041 21.8869 14 21.8844Z" fill="#746E36" fill-opacity="0.89"/>
</svg>
