<svg width="28" height="27" viewBox="0 0 28 27" fill="none" xmlns="http://www.w3.org/2000/svg">
<path d="M23.8344 26.9938H4.15626C3.72682 27.0031 3.29999 26.9248 2.90185 26.7636C2.5037 26.6024 2.14261 26.3617 1.84063 26.0563C1.53426 25.7549 1.29299 25.394 1.13173 24.9957C0.970476 24.5974 0.892671 24.1702 0.903132 23.7406V4.1375C0.888274 3.70845 0.961276 3.28088 1.11766 2.88107C1.27404 2.48125 1.51049 2.11762 1.81251 1.8125C2.11775 1.50353 2.48342 1.26081 2.88668 1.0995C3.28995 0.9382 3.72213 0.861774 4.15626 0.875001H23.8438C24.2778 0.862336 24.7098 0.93902 25.113 1.10029C25.5162 1.26156 25.8819 1.50398 26.1875 1.8125C26.4923 2.11305 26.7326 2.47256 26.8938 2.86908C27.0549 3.2656 27.1336 3.69081 27.125 4.11875V23.7219C27.1355 24.1515 27.0577 24.5786 26.8964 24.9769C26.7352 25.3752 26.4939 25.7362 26.1875 26.0375C25.8825 26.3506 25.5159 26.5972 25.111 26.7617C24.706 26.9263 24.2714 27.0053 23.8344 26.9938ZM18.7906 20.7031C18.9771 20.7198 19.1629 20.6652 19.3107 20.5504C19.4586 20.4356 19.5574 20.2691 19.5875 20.0844L22.1844 7.6625C22.1918 7.58244 22.1804 7.50174 22.1511 7.42687C22.1218 7.35199 22.0754 7.285 22.0156 7.23125C21.9116 7.13251 21.7747 7.07575 21.6313 7.07188C21.5813 7.07188 16.4156 8.98125 6.13438 12.8C6.01836 12.837 5.91779 12.9113 5.84829 13.0113C5.77879 13.1113 5.74424 13.2315 5.75001 13.3531C5.75655 13.4667 5.79918 13.5753 5.87169 13.6629C5.94419 13.7506 6.04279 13.8129 6.15313 13.8406L9.90313 15.0031L11.4125 19.5313C11.4519 19.6547 11.5315 19.7614 11.6385 19.8344C11.7455 19.9074 11.8738 19.9426 12.0031 19.9344C12.0731 19.9341 12.1423 19.9199 12.2067 19.8926C12.2711 19.8652 12.3294 19.8252 12.3781 19.775L14.5063 17.75L18.3406 20.5625C18.4742 20.6512 18.6303 20.7 18.7906 20.7031ZM11.9375 18.4156L10.8031 14.6656C16.2531 11.1969 18.9969 9.4625 19.0344 9.4625C19.175 9.4625 19.25 9.4625 19.25 9.6125C19.2532 9.63112 19.2532 9.65013 19.25 9.66875C19.25 9.66875 16.8969 11.825 12.2 16.0438L11.9375 18.4156Z" fill="#746E36" fill-opacity="0.89"/>
</svg>
